<svg xmlns="http://www.w3.org/2000/svg" width="604.999" height="112" viewBox="0 0 604.999 112"><g transform="translate(-454.771 -1607.217)"><g transform="translate(454.771 1607.217)"><path d="M586.6,478.168H552.3V496.22h34.3a9.026,9.026,0,0,0,0-18.052" transform="translate(-433.155 -385.937)" fill="#1b1d21"/><path d="M586.691,454.667a9.024,9.024,0,0,0-9.026,9.024v60.4l-39.2-65.228a9.027,9.027,0,0,0-15.478,9.3l55.384,92.16a8.953,8.953,0,0,0,6.409,4.237l.378.058.642.066.888.09a9.027,9.027,0,0,0,9.026-9.024V463.691a9.024,9.024,0,0,0-9.025-9.024" transform="translate(-521.702 -454.487)" fill="#1b1d21"/><path d="M521.8,548.2h18.047V490.245L521.8,460.213Z" transform="translate(-521.431 -437.911)" fill="#1b1d21"/><path d="M552.3,466.35v18.056h28.522a9.028,9.028,0,1,0,0-18.056Z" transform="translate(-433.155 -420.147)" fill="#1b1d21"/><path d="M605.386,472.532a9.022,9.022,0,1,0,0-18.044H571.8c-5.233,0-12.845,1.083-19.963,9.2-6.1,6.956-6.027,16.642-6.027,16.642V564.77h18.047V482.28a10.153,10.153,0,0,1,2.64-6.57,11.383,11.383,0,0,1,5.3-3.178Z" transform="translate(-451.935 -454.483)" fill="#1b1d21"/></g><g transform="translate(645.53 1608.518)"><path d="M570.694,494.869h43.925a8.13,8.13,0,0,0,0-16.26H570.694Z" transform="translate(-570.694 -385.963)" fill="#1b1d21"/><path d="M644.139,455.258H589.954c-1.133,0-1.62.51-1.62,1.7v8.346c0,1.192.487,1.7,1.62,1.7h19.087c1.129,0,1.616.514,1.616,1.706v92.132c0,1.2.487,1.7,1.616,1.7h9.547c1.129,0,1.616-.506,1.616-1.7V468.714c0-1.192.487-1.706,1.616-1.706h19.087c1.137,0,1.62-.51,1.62-1.7V456.96c0-1.192-.482-1.7-1.62-1.7" transform="translate(-519.649 -453.556)" fill="#1b1d21"/><path d="M618.059,463.3h-9.54c-1.137,0-1.62.514-1.62,1.7v72.55c0,1.2.483,1.7,1.62,1.7h9.54c1.137,0,1.62-.506,1.62-1.7v-72.55c0-1.188-.483-1.7-1.62-1.7" transform="translate(-465.927 -430.266)" fill="#1b1d21"/><path d="M683.672,463.3a24.4,24.4,0,0,0-19.247,8.857c-.81,1.02-1.783,1.2-2.589,0a22.488,22.488,0,0,0-17.79-8.857c-4.856,0-10.354,2.212-14.882,7.493-1.293,1.363-2.589.51-2.589-1.363V465.01c0-1.2-.487-1.706-1.62-1.706h-7.924c-1.133,0-1.616.51-1.616,1.706v72.546c0,1.192.483,1.706,1.616,1.706h9.543c1.133,0,1.62-.514,1.62-1.706v-45.98c0-9.367,7.76-16.693,14.232-16.693,6.794,0,14.235,7.493,14.235,16.693v45.98c0,1.192.483,1.706,1.616,1.706h9.543c1.133,0,1.616-.514,1.616-1.706v-45.98c0-9.367,7.928-16.693,14.235-16.693,6.795,0,14.235,7.493,14.235,16.693v45.98c0,1.192.487,1.706,1.62,1.706h9.539c1.133,0,1.62-.514,1.62-1.706v-45.98c0-16.693-11.646-28.272-27.015-28.272" transform="translate(-441.284 -430.266)" fill="#1b1d21"/><path d="M688.9,492.33c0,1.192-.483,1.7-1.616,1.7H658.817c-.81,0-1.62-.171-1.62-1.02v-1.873c0-9.2,5.825-16.693,15.852-16.693a15.593,15.593,0,0,1,15.851,15.84Zm-15.851-29.463c-17.467,0-28.631,12.093-28.631,28.271v22.648c0,16.86,11.163,28.443,28.631,28.443,9.7,0,16.015-3.065,20.38-7.665a30.366,30.366,0,0,0,5.338-7.661c.487-1.024.327-1.706-.642-2.216l-8.574-4.6a1.424,1.424,0,0,0-2.1.681c-3.4,6.3-8.9,9.706-14.4,9.706-8.734,0-15.852-7.665-15.852-16.693v-8c0-1.188.491-1.7,1.62-1.7h41.246c1.133,0,1.616-.51,1.616-1.706V491.138c0-16.35-11.483-28.271-28.63-28.271" transform="translate(-357.358 -431.531)" fill="#1b1d21"/><path d="M696.551,496.93c-11-2.388-21.509-3.237-21.509-12.6,0-5.624,3.722-10.391,13.1-10.391H693c6.308,0,11.482,3.747,14.722,9.371a1.427,1.427,0,0,0,2.1.678l7.76-4.086a1.663,1.663,0,0,0,.814-2.383,28.107,28.107,0,0,0-6.794-8.689c-4.209-3.575-10.194-5.959-18.6-5.959h-4.852c-14.559,0-25.554,7.665-25.554,23.162,0,14.305,11.482,19.244,22.155,21.456,11.323,2.387,21.836,3.579,21.836,11.922,0,6.3-4.529,11.754-13.585,11.754h-4.852c-5.985,0-11.81-3.918-14.718-9.538a1.4,1.4,0,0,0-2.107-.681l-7.764,4.089a1.489,1.489,0,0,0-.806,2.212,26.763,26.763,0,0,0,6.144,8.342c4.205,3.922,10.193,6.644,19.25,6.644H693c17.3,0,26.2-11.069,26.2-24.525,0-13.791-10.352-18.052-22.649-20.774" transform="translate(-304.96 -431.53)" fill="#1b1d21"/><path d="M614.408,454.821a8.156,8.156,0,0,0-7.924,8.342c0,4.771,3.4,8.518,7.924,8.518a8.337,8.337,0,0,0,8.087-8.518,8.08,8.08,0,0,0-8.087-8.342" transform="translate(-467.128 -454.821)" fill="#1b1d21"/></g></g></svg>